<svg width="579" height="100" viewBox="0 0 579 100" fill="none" xmlns="http://www.w3.org/2000/svg">
<g filter="url(#filter0_d_166612_3265)">
<path d="M20 36C20 27.1634 27.1634 20 36 20H543C551.837 20 559 27.1634 559 36V64C559 72.8366 551.837 80 543 80H36C27.1634 80 20 72.8366 20 64V36Z" fill="white"/>
</g>
<rect x="52" y="63.0004" width="412" height="1" fill="#DCDCDC"/>
<path d="M63.286 40.4V53H61.504V48.014C60.172 48.53 58.942 48.788 57.814 48.788C56.278 48.788 55.084 48.416 54.232 47.672C53.392 46.928 52.972 45.866 52.972 44.486V40.4H54.736V44.288C54.736 45.224 55.018 45.944 55.582 46.448C56.158 46.952 56.968 47.204 58.012 47.204C59.176 47.204 60.34 46.94 61.504 46.412V40.4H63.286ZM74.0379 44.972H70.5459V53H68.8179V44.972H65.3259V43.46H74.0379V44.972ZM79.469 53.108C78.521 53.108 77.669 52.898 76.913 52.478C76.157 52.058 75.563 51.482 75.131 50.75C74.711 50.006 74.501 49.166 74.501 48.23C74.501 47.294 74.711 46.46 75.131 45.728C75.563 44.984 76.157 44.408 76.913 44C77.669 43.58 78.521 43.37 79.469 43.37C80.417 43.37 81.263 43.58 82.007 44C82.763 44.408 83.351 44.984 83.771 45.728C84.203 46.46 84.419 47.294 84.419 48.23C84.419 49.166 84.203 50.006 83.771 50.75C83.351 51.482 82.763 52.058 82.007 52.478C81.263 52.898 80.417 53.108 79.469 53.108ZM79.469 51.596C80.081 51.596 80.627 51.458 81.107 51.182C81.599 50.894 81.983 50.498 82.259 49.994C82.535 49.478 82.673 48.89 82.673 48.23C82.673 47.57 82.535 46.988 82.259 46.484C81.983 45.968 81.599 45.572 81.107 45.296C80.627 45.02 80.081 44.882 79.469 44.882C78.857 44.882 78.305 45.02 77.813 45.296C77.333 45.572 76.949 45.968 76.661 46.484C76.385 46.988 76.247 47.57 76.247 48.23C76.247 48.89 76.385 49.478 76.661 49.994C76.949 50.498 77.333 50.894 77.813 51.182C78.305 51.458 78.857 51.596 79.469 51.596ZM96.6082 43.784C97.4962 43.784 98.2882 43.982 98.9842 44.378C99.6802 44.774 100.22 45.326 100.604 46.034C101 46.73 101.198 47.528 101.198 48.428C101.198 49.352 100.988 50.174 100.568 50.894C100.16 51.602 99.5782 52.154 98.8222 52.55C98.0782 52.946 97.2262 53.144 96.2662 53.144C94.6462 53.144 93.3922 52.592 92.5042 51.488C91.6282 50.372 91.1902 48.806 91.1902 46.79C91.1902 44.834 91.5922 43.304 92.3962 42.2C93.2002 41.084 94.4302 40.346 96.0862 39.986L100.442 39.014L100.694 40.598L96.6802 41.462C95.4322 41.738 94.5022 42.206 93.8902 42.866C93.2782 43.526 92.9302 44.474 92.8462 45.71C93.2542 45.098 93.7822 44.624 94.4302 44.288C95.0782 43.952 95.8042 43.784 96.6082 43.784ZM96.3022 51.704C96.9142 51.704 97.4542 51.566 97.9222 51.29C98.4022 51.014 98.7742 50.636 99.0382 50.156C99.3022 49.664 99.4342 49.106 99.4342 48.482C99.4342 47.534 99.1462 46.772 98.5702 46.196C97.9942 45.62 97.2382 45.332 96.3022 45.332C95.3662 45.332 94.6042 45.62 94.0162 46.196C93.4402 46.772 93.1522 47.534 93.1522 48.482C93.1522 49.106 93.2842 49.664 93.5482 50.156C93.8242 50.636 94.2022 51.014 94.6822 51.29C95.1622 51.566 95.7022 51.704 96.3022 51.704ZM111.917 43.46L107.291 53.954C106.883 54.926 106.403 55.61 105.851 56.006C105.311 56.402 104.657 56.6 103.889 56.6C103.421 56.6 102.965 56.522 102.521 56.366C102.089 56.222 101.729 56.006 101.441 55.718L102.179 54.422C102.671 54.89 103.241 55.124 103.889 55.124C104.309 55.124 104.657 55.01 104.933 54.782C105.221 54.566 105.479 54.188 105.707 53.648L106.013 52.982L101.801 43.46H103.601L106.931 51.092L110.225 43.46H111.917ZM122.878 51.488V55.214H121.258V53H113.284V55.214H111.646V51.488H112.15C112.762 51.452 113.182 51.02 113.41 50.192C113.638 49.364 113.794 48.194 113.878 46.682L114.022 43.46H121.42V51.488H122.878ZM115.462 46.808C115.414 48.008 115.312 49.004 115.156 49.796C115.012 50.576 114.742 51.14 114.346 51.488H119.692V44.972H115.552L115.462 46.808ZM133.751 48.284C133.751 48.416 133.739 48.59 133.715 48.806H125.975C126.083 49.646 126.449 50.324 127.073 50.84C127.709 51.344 128.495 51.596 129.431 51.596C130.571 51.596 131.489 51.212 132.185 50.444L133.139 51.56C132.707 52.064 132.167 52.448 131.519 52.712C130.883 52.976 130.169 53.108 129.377 53.108C128.369 53.108 127.475 52.904 126.695 52.496C125.915 52.076 125.309 51.494 124.877 50.75C124.457 50.006 124.247 49.166 124.247 48.23C124.247 47.306 124.451 46.472 124.859 45.728C125.279 44.984 125.849 44.408 126.569 44C127.301 43.58 128.123 43.37 129.035 43.37C129.947 43.37 130.757 43.58 131.465 44C132.185 44.408 132.743 44.984 133.139 45.728C133.547 46.472 133.751 47.324 133.751 48.284ZM129.035 44.828C128.207 44.828 127.511 45.08 126.947 45.584C126.395 46.088 126.071 46.748 125.975 47.564H132.095C131.999 46.76 131.669 46.106 131.105 45.602C130.553 45.086 129.863 44.828 129.035 44.828ZM147.43 43.46V53H145.864V46.034L142.3 51.92H141.544L138.016 46.016V53H136.432V43.46H138.214L141.958 49.904L145.81 43.46H147.43ZM155.627 43.46H157.355V50.408L163.205 43.46H164.771V53H163.043V46.052L157.211 53H155.627V43.46ZM172.283 53.108C171.311 53.108 170.441 52.898 169.673 52.478C168.917 52.058 168.323 51.482 167.891 50.75C167.459 50.006 167.243 49.166 167.243 48.23C167.243 47.294 167.459 46.46 167.891 45.728C168.323 44.984 168.917 44.408 169.673 44C170.441 43.58 171.311 43.37 172.283 43.37C173.147 43.37 173.915 43.544 174.587 43.892C175.271 44.24 175.799 44.744 176.171 45.404L174.857 46.25C174.557 45.794 174.185 45.452 173.741 45.224C173.297 44.996 172.805 44.882 172.265 44.882C171.641 44.882 171.077 45.02 170.573 45.296C170.081 45.572 169.691 45.968 169.403 46.484C169.127 46.988 168.989 47.57 168.989 48.23C168.989 48.902 169.127 49.496 169.403 50.012C169.691 50.516 170.081 50.906 170.573 51.182C171.077 51.458 171.641 51.596 172.265 51.596C172.805 51.596 173.297 51.482 173.741 51.254C174.185 51.026 174.557 50.684 174.857 50.228L176.171 51.056C175.799 51.716 175.271 52.226 174.587 52.586C173.915 52.934 173.147 53.108 172.283 53.108ZM182.116 48.968H180.136V53H178.408V43.46H180.136V47.492H182.152L185.248 43.46H187.102L183.484 48.05L187.354 53H185.32L182.116 48.968ZM192.392 43.37C193.712 43.37 194.72 43.694 195.416 44.342C196.124 44.99 196.478 45.956 196.478 47.24V53H194.84V51.74C194.552 52.184 194.138 52.526 193.598 52.766C193.07 52.994 192.44 53.108 191.708 53.108C190.64 53.108 189.782 52.85 189.134 52.334C188.498 51.818 188.18 51.14 188.18 50.3C188.18 49.46 188.486 48.788 189.098 48.284C189.71 47.768 190.682 47.51 192.014 47.51H194.75V47.168C194.75 46.424 194.534 45.854 194.102 45.458C193.67 45.062 193.034 44.864 192.194 44.864C191.63 44.864 191.078 44.96 190.538 45.152C189.998 45.332 189.542 45.578 189.17 45.89L188.45 44.594C188.942 44.198 189.53 43.898 190.214 43.694C190.898 43.478 191.624 43.37 192.392 43.37ZM191.996 51.776C192.656 51.776 193.226 51.632 193.706 51.344C194.186 51.044 194.534 50.624 194.75 50.084V48.752H192.086C190.622 48.752 189.89 49.244 189.89 50.228C189.89 50.708 190.076 51.086 190.448 51.362C190.82 51.638 191.336 51.776 191.996 51.776ZM206.7 44.972H203.208V53H201.48V44.972H197.988V43.46H206.7V44.972ZM212.877 46.7C214.089 46.712 215.013 46.988 215.649 47.528C216.285 48.068 216.603 48.83 216.603 49.814C216.603 50.846 216.255 51.644 215.559 52.208C214.875 52.76 213.891 53.03 212.607 53.018L208.467 53V43.46H210.195V46.682L212.877 46.7ZM212.463 51.704C213.243 51.716 213.831 51.56 214.227 51.236C214.635 50.912 214.839 50.432 214.839 49.796C214.839 49.172 214.641 48.716 214.245 48.428C213.861 48.14 213.267 47.99 212.463 47.978L210.195 47.942V51.686L212.463 51.704ZM220.477 49.022C220.477 48.542 220.555 48.122 220.711 47.762C220.879 47.39 221.077 47.078 221.305 46.826C221.545 46.574 221.857 46.274 222.241 45.926C222.721 45.506 223.075 45.146 223.303 44.846C223.531 44.534 223.645 44.162 223.645 43.73C223.645 43.142 223.417 42.674 222.961 42.326C222.505 41.966 221.875 41.786 221.071 41.786C219.667 41.786 218.593 42.26 217.849 43.208L216.535 42.272C217.039 41.624 217.681 41.126 218.461 40.778C219.253 40.43 220.165 40.256 221.197 40.256C222.505 40.256 223.543 40.544 224.311 41.12C225.079 41.684 225.463 42.464 225.463 43.46C225.463 43.952 225.379 44.39 225.211 44.774C225.055 45.146 224.863 45.458 224.635 45.71C224.407 45.962 224.101 46.262 223.717 46.61C223.225 47.054 222.859 47.444 222.619 47.78C222.391 48.116 222.277 48.53 222.277 49.022H220.477ZM221.395 53.108C221.059 53.108 220.777 53 220.549 52.784C220.333 52.556 220.225 52.28 220.225 51.956C220.225 51.632 220.333 51.362 220.549 51.146C220.777 50.918 221.059 50.804 221.395 50.804C221.731 50.804 222.007 50.918 222.223 51.146C222.439 51.362 222.547 51.632 222.547 51.956C222.547 52.28 222.433 52.556 222.205 52.784C221.989 53 221.719 53.108 221.395 53.108Z" fill="#ADADAD"/>
<rect x="530.954" y="45.3044" width="11.6645" height="2.33291" transform="rotate(45 530.954 45.3044)" fill="#999999"/>
<rect x="529.304" y="53.5524" width="11.6645" height="2.33291" transform="rotate(-45 529.304 53.5524)" fill="#999999"/>
<circle cx="534" cy="50" r="11" stroke="#999999" stroke-width="2"/>
<rect width="7.56126" height="1.89031" transform="matrix(0.713342 0.700816 -0.713342 0.700816 496.606 55.3762)" fill="#FF9900"/>
<path d="M498.93 48.7726C498.93 54.1533 494.486 58.5452 488.965 58.5452C483.445 58.5452 479 54.1533 479 48.7726C479 43.392 483.445 39 488.965 39C494.486 39 498.93 43.392 498.93 48.7726Z" stroke="#FF9900" stroke-width="2"/>
<defs>
<filter id="filter0_d_166612_3265" x="0" y="0" width="579" height="100" filterUnits="userSpaceOnUse" color-interpolation-filters="sRGB">
<feFlood flood-opacity="0" result="BackgroundImageFix"/>
<feColorMatrix in="SourceAlpha" type="matrix" values="0 0 0 0 0 0 0 0 0 0 0 0 0 0 0 0 0 0 127 0" result="hardAlpha"/>
<feOffset/>
<feGaussianBlur stdDeviation="10"/>
<feColorMatrix type="matrix" values="0 0 0 0 0 0 0 0 0 0 0 0 0 0 0 0 0 0 0.12 0"/>
<feBlend mode="normal" in2="BackgroundImageFix" result="effect1_dropShadow_166612_3265"/>
<feBlend mode="normal" in="SourceGraphic" in2="effect1_dropShadow_166612_3265" result="shape"/>
</filter>
</defs>
</svg>
